# xmcd CD database file
#
# Track frame offsets:
#	150
#	19210
#	34868
#	48936
#	61979
#	77299
#	93963
#	103974
#	135468
#	155304
#	171145
#	188219
#	195397
#	210447
#	221466
#	234617
#	254332
#	267676
#	279317
#	289748
#
# Disc length: 4093 seconds
#
# Revision: 0
# Processed by: cddbd v1.5.2PL0 Copyright (c) Steve Scherf et al.
# Submitted via: CDex 1.51
#
DISCID=170ffb14
DTITLE=B.J. Ward - sings Marshall Barer
DYEAR=2005
DGENRE=Jazz
TTITLE0=Be Here Now
TTITLE1=Billions Of Beautiful Boys
TTITLE2=Write About What You Know
TTITLE3=Beyond Compare
TTITLE4=Shall We Join The Ladies?
TTITLE5=C'est Comme Ca
TTITLE6=Mighty Mouse Theme
TTITLE7=Once Upon A Maltress Medley
TTITLE8=Something Known
TTITLE9=Lost In Wonderland
TTITLE10=You Can't Go Home Again
TTITLE11=A Woman Alone
TTITLE12=The Time Has Gone
TTITLE13=There's A Ju On Every Jury
TTITLE14=It Might Be Nice
TTITLE15=For Love Alone
TTITLE16=On Such A Night As This
TTITLE17=Such Sweet Sorrow
TTITLE18=Rondelay
TTITLE19=Wasn't It Romantic?
EXTD=YEAR: 2005
EXTT0=
EXTT1=
EXTT2=
EXTT3=
EXTT4=
EXTT5=
EXTT6=
EXTT7=
EXTT8=
EXTT9=
EXTT10=
EXTT11=
EXTT12=
EXTT13=
EXTT14=
EXTT15=
EXTT16=
EXTT17=
EXTT18=
EXTT19=
PLAYORDER=
